# xmcd
#
# Track frame offsets: 
#        182
#        17195
#        35670
#
# Disc length: 712 seconds
#
# Revision: 11
# Processed by: cddbd v1.5.2PL0 Copyright (c) Steve Scherf et al.
# Submitted via: ExactAudioCopy v0.99pb5
#
DISCID=1f02c603
DTITLE=Jay-Z - The City Is Mine [CDS)
DYEAR=1998
DGENRE=Hip-Hop
TTITLE0=The City Is Mine (Radio) feat. BLACKstreet
TTITLE1=The City Is Mine (TV Track)
TTITLE2=A Million and One Question (Radio)
EXTD=YEAR: 2000
EXTT0=
EXTT1=
EXTT2=
PLAYORDER=
